# xmcd CD database file
#
# Track frame offsets:
#	150
#	9961
#	21724
#	37019
#	55237
#	70062
#	83649
#	102673
#	116150
#	135624
#	155361
#	174710
#	187909
#	197882
#
# Disc length: 2818 seconds
#
# Revision: 0
# Processed by: cddbd v1.5.2PL0 Copyright (c) Steve Scherf et al.
# Submitted via: CDex 1.70beta2
#
DISCID=c10b000e
DTITLE=Leona Machalkova - Voda divoka
DYEAR=1900
DGENRE=Jazz
TTITLE0=I Wanna Be Love By You
TTITLE1=Jen dva ta lodka muze vezt
TTITLE2=Voda divoka
TTITLE3=Fever
TTITLE4=Buenos Aires
TTITLE5=Ja placu
TTITLE6=Here comes the sun 
TTITLE7=Rano to skoncim
TTITLE8=Vim jak je tezke zit
TTITLE9=Dej mi svou ruku prazdnou
TTITLE10=Moondance
TTITLE11=Pro Kiki
TTITLE12=Swing
TTITLE13=Ja placu - duet
EXTD=
EXTT0=
EXTT1=
EXTT2=
EXTT3=
EXTT4=
EXTT5=
EXTT6=
EXTT7=
EXTT8=
EXTT9=
EXTT10=
EXTT11=
EXTT12=
EXTT13=
PLAYORDER=
